<?xml version="1.0" standalone="no"?>
<!DOCTYPE svg PUBLIC "-//W3C//DTD SVG 1.1//EN" "http://www.w3.org/Graphics/SVG/1.1/DTD/svg11.dtd">
<svg xmlns="http://www.w3.org/2000/svg" id="Layer_2" data-name="Layer 2" viewBox="0 0 618.22 230.61" width="618.219970703125" height="230.61000061035156">
  <defs>
    <style>
      .cls-1 {
        fill: #ffda47;
      }

      .cls-2 {
        fill: #20466f;
      }
    </style>
  </defs>
  <g id="Layer_1-2" data-name="Layer 1">
    <g>
      <path class="cls-2" d="M124.79,90.27c-3.44-8.19-8.19-15.36-14.24-21.54-6.08-6.18-13.11-11.03-21.17-14.6-8.09-3.57-16.61-5.35-25.63-5.35s-17.57,1.78-25.63,5.35c-6.21,2.74-11.76,6.21-16.78,10.47l24.24,24.28c1.72-1.19,3.53-2.21,5.48-3.07,4-1.75,8.22-2.61,12.68-2.61s8.65.86,12.65,2.61c4,1.78,7.47,4.19,10.47,7.23,2.97,3.04,5.32,6.57,7.04,10.64,1.68,4.03,2.54,8.36,2.54,12.92s-.86,9.12-2.54,13.21c-1.72,4.1-4.06,7.66-7.04,10.74-3.01,3.04-6.44,5.45-10.37,7.2-3.93,1.75-8.19,2.64-12.75,2.64s-8.85-.89-12.75-2.64c-1.92-.86-3.73-1.88-5.45-3.04l-24.24,24.24c4.99,4.26,10.5,7.76,16.61,10.47,7.96,3.57,16.55,5.35,25.83,5.35s17.84-1.78,25.8-5.35c7.96-3.53,14.93-8.42,21.01-14.6,6.04-6.14,10.8-13.38,14.24-21.7,3.44-8.29,5.15-17.21,5.15-26.69s-1.72-17.97-5.15-26.16Z"/>
      <path class="cls-2" d="M145.21,230.61V51.27h36.96v15.63c3.8-5.62,8.72-10.05,14.76-13.27,6.04-3.22,13.6-4.84,22.7-4.84s17.73,1.7,25.42,5.08c7.69,3.39,14.3,8.15,19.84,14.26,5.54,6.12,9.84,13.31,12.9,21.58,3.06,8.27,4.59,17.36,4.59,27.28s-1.53,18.77-4.59,27.04c-3.06,8.27-7.32,15.38-12.78,21.33-5.46,5.95-12.03,10.63-19.72,14.01-7.69,3.39-16.16,5.09-25.42,5.09s-16.91-1.57-22.94-4.71c-6.04-3.14-10.96-7.44-14.76-12.9v63.75h-36.96ZM182.17,112.29v9.18c.5,3.64,1.57,7.11,3.23,10.42,1.65,3.31,3.85,6.12,6.57,8.43,2.73,2.32,5.87,4.18,9.43,5.58,3.55,1.41,7.48,2.11,11.78,2.11,4.8,0,9.09-.83,12.9-2.48,3.8-1.65,7.03-3.88,9.67-6.7,2.64-2.81,4.71-6.11,6.2-9.92,1.49-3.8,2.23-7.77,2.23-11.91s-.71-8.39-2.11-12.28c-1.41-3.88-3.47-7.27-6.2-10.17-2.73-2.89-6-5.17-9.8-6.82-3.81-1.65-8.1-2.48-12.9-2.48-8.6,0-15.71,2.6-21.33,7.81-5.62,5.21-8.85,11.62-9.68,19.22Z"/>
      <path class="cls-2" d="M297.01,51.27h36.96v47.13h9.18l29.52-47.13h44.9l-40.18,64.49,46.14,66.48h-47.62l-32-49.11h-9.92v49.11h-36.96V51.27Z"/>
      <path class="cls-2" d="M429.96,51.27h36.96v130.97h-36.96V51.27Z"/>
      <path class="cls-2" d="M519.5,124.94c1.32,7.77,4.71,14.1,10.17,18.97,5.46,4.88,12.48,7.32,21.08,7.32,5.29,0,10.17-1.32,14.64-3.97,4.46-2.64,7.85-5.87,10.17-9.67h39.93c-1.65,7.11-4.43,13.56-8.31,19.35-3.89,5.79-8.68,10.71-14.39,14.76-5.7,4.05-12.15,7.19-19.35,9.43-7.19,2.23-15.01,3.35-23.44,3.35-9.92,0-19.06-1.7-27.41-5.09-8.35-3.39-15.55-8.1-21.58-14.14-6.04-6.03-10.79-13.19-14.26-21.45-3.47-8.27-5.21-17.28-5.21-27.04s1.69-18.81,5.08-27.16c3.39-8.35,8.1-15.54,14.14-21.58,6.03-6.03,13.19-10.75,21.46-14.14,8.27-3.39,17.36-5.08,27.28-5.08,9.26,0,17.82,1.36,25.67,4.09,7.85,2.73,14.76,6.61,20.71,11.66,5.95,5.05,10.79,11.08,14.51,18.11,3.72,7.03,6.08,14.76,7.07,23.19.33,3.81.53,6.66.62,8.56.08,1.9.13,3.35.13,4.34,0,1.98-.09,4.05-.25,6.2h-98.48ZM578.28,104.6c-1.16-6.61-4.3-12.03-9.42-16.25-5.13-4.22-11.41-6.32-18.85-6.32s-14.14,2.07-19.1,6.2c-4.96,4.14-8.35,9.59-10.17,16.37h57.55Z"/>
      <path class="cls-1" d="M64.08,116.76l-23.62,23.62-23.98,24.01c-5.85-6.04-10.44-13.15-13.81-21.27-1.02-2.48-1.92-5.02-2.61-7.63l18.7-18.73L0,97.99c.73-2.64,1.62-5.22,2.68-7.73,3.37-7.99,7.99-15.03,13.81-21.11l24.01,24.01,23.58,23.58Z"/>
      <polygon class="cls-1" points="463.59 39.26 478.88 19.57 463.69 0 431.93 0 443.47 19.57 428.19 39.26 463.59 39.26"/>
    </g>
  </g>
</svg>